<?xml version="1.0" encoding="utf-8"?>
<!-- Generator: Adobe Illustrator 22.1.0, SVG Export Plug-In . SVG Version: 6.00 Build 0)  -->
<svg version="1.1" id="Artwork" xmlns="http://www.w3.org/2000/svg" xmlns:xlink="http://www.w3.org/1999/xlink" x="0px" y="0px"
	 viewBox="0 0 721 478.5" style="enable-background:new 0 0 721 478.5;" xml:space="preserve">
<style type="text/css">
	.st0{fill:none;}
	.st1{fill:#002F34;}
</style>
<rect id="Clearspace" class="st0" width="721" height="478.5"/>
<path id="Logo" class="st1" d="M449.2,401.5h-77V77h77V401.5z M344.5,239.3c0,73.9-59.9,133.7-133.7,133.7S77,313.1,77,239.3
	s59.9-133.7,133.7-133.7S344.5,165.4,344.5,239.3z M251.3,239.3c0-22.4-18.1-40.5-40.5-40.5s-40.5,18.1-40.5,40.5
	s18.1,40.5,40.5,40.5S251.3,261.7,251.3,239.3z M643.9,158h-51.1l-30,30l-30-30h-51.1v52l29.6,29.6l-29.6,29.6v51.3h51.9l29.3-29.3
	l29.3,29.3h51.9v-51.3l-29.6-29.6l29.6-29.6V158z"/>
</svg>
