<svg xmlns="http://www.w3.org/2000/svg" width="161" height="43" viewBox="0 0 161 43" fill="none"><path d="M47.6438 17.6589C48.2166 17.0678 49.1506 16.5013 50.4456 15.9718C51.7407 15.4423 53.1603 15.1714 54.7044 15.1714C56.535 15.1714 58.0044 15.6393 59.0878 16.5506C60.196 17.4742 60.744 18.7549 60.744 20.405V28.434C60.744 29.8009 60.856 30.6875 61.0802 31.0939C61.3043 31.5003 61.7028 31.6973 62.2756 31.6973C62.6617 31.6973 63.0477 31.6604 63.4462 31.5865L63.8696 32.8056C63.5707 33.1012 63.1349 33.3228 62.5745 33.5075C62.0141 33.6799 61.4662 33.7785 60.9308 33.7785C60.3081 33.7785 59.7478 33.5445 59.2496 33.0888C58.7515 32.6332 58.4402 31.8328 58.3281 30.6999H58.2285C57.2946 31.722 56.2735 32.4978 55.1652 33.015C54.0569 33.5322 52.8739 33.7908 51.6162 33.7908C50.1094 33.7908 48.914 33.3967 48.0298 32.6086C47.1457 31.8205 46.7098 30.6875 46.7098 29.2098C46.7098 27.6336 47.2204 26.3406 48.2291 25.3431C49.2377 24.3456 50.6075 23.6191 52.3135 23.1511C54.0195 22.6955 55.9497 22.4615 58.0916 22.4615V21.0577C58.0916 19.5799 57.7678 18.5702 57.1327 18.0406C56.4976 17.5111 55.6633 17.2402 54.6422 17.2402C53.3471 17.2402 52.2015 17.4988 51.2177 18.0283C50.2215 18.5578 49.5117 19.0258 49.0634 19.4445L47.6438 17.6589ZM58.0791 23.9392C55.5512 23.9762 53.509 24.3949 51.9649 25.2076C50.4207 26.0204 49.6487 27.1902 49.6487 28.7172C49.6487 29.6654 49.9102 30.3551 50.4332 30.7984C50.9562 31.2417 51.666 31.4633 52.5626 31.4633C53.6833 31.4633 54.7791 31.2171 55.8376 30.7122C56.8961 30.2073 57.6433 29.7516 58.0791 29.333V23.9392Z" fill="white"></path><path d="M66.248 29.1236C67.0076 29.9487 67.8046 30.589 68.614 31.0447C69.4234 31.5003 70.4445 31.7343 71.6649 31.7343C72.8977 31.7343 73.9188 31.4757 74.7158 30.9585C75.5128 30.4413 75.9112 29.727 75.9112 28.8281C75.9112 28.2 75.712 27.6705 75.3011 27.2149C74.8901 26.7592 74.0807 26.3159 72.8479 25.8849C72.3872 25.7248 71.4781 25.4293 70.1332 24.9613C68.8631 24.6289 67.6676 24.0624 66.5593 23.262C65.451 22.4615 64.8907 21.3286 64.8907 19.8632C64.8907 18.4593 65.4884 17.3264 66.6963 16.4644C67.9042 15.6024 69.4608 15.1714 71.366 15.1714C72.0385 15.1714 72.6736 15.2083 73.2464 15.2822C73.8317 15.3561 74.3671 15.4792 74.8777 15.6393C75.3882 15.8117 75.8739 16.0211 76.3346 16.292C76.7954 16.5629 77.2312 16.8954 77.6546 17.2895L76.1229 19.112C75.3633 18.4593 74.6162 17.9791 73.8815 17.6712C73.1592 17.3757 72.3249 17.2156 71.3909 17.2156C70.2453 17.2156 69.2989 17.4249 68.5517 17.8559C67.8046 18.2746 67.431 18.8903 67.431 19.7031C67.431 20.4789 67.7797 21.1069 68.477 21.5626C69.1744 22.0305 69.9963 22.3999 70.9551 22.6709C71.4657 22.8309 71.9638 22.991 72.4619 23.1511C72.96 23.3235 73.4581 23.4836 73.9686 23.6314C75.5626 24.1978 76.7082 24.8628 77.4056 25.6386C78.1029 26.4021 78.4516 27.4119 78.4516 28.6557C78.4516 30.2196 77.804 31.451 76.509 32.3746C75.2139 33.2982 73.62 33.7538 71.7147 33.7538C70.2328 33.7538 68.9129 33.5691 67.7797 33.1997C66.634 32.8302 65.5382 32.0914 64.4673 31.0077L66.248 29.1236Z" fill="white"></path><path d="M81.1414 7.32578H83.8062V16.8448C84.4164 16.4877 85.2134 16.1183 86.2096 15.7488C87.2058 15.3671 88.339 15.1824 89.5967 15.1824C91.5144 15.1824 92.9713 15.7242 93.9925 16.8202C95.0136 17.9162 95.5241 19.3816 95.5241 21.2411V33.4939H92.8593L92.8717 21.3888C92.8717 20.1081 92.5479 19.1107 91.9129 18.3964C91.2653 17.6822 90.2691 17.3251 88.9118 17.3251C88.0526 17.3251 87.1809 17.4728 86.2843 17.7561C85.3877 18.0516 84.5658 18.3841 83.8187 18.7782V33.4816H81.1414V7.32578Z" fill="white"></path><path d="M101.775 22.4109L109.359 15.4533H112.597L105.237 22.0292L112.933 33.4816H109.782L103.631 23.3222L101.775 24.8861V33.4816H99.1105V7.32578H101.775V22.4109Z" fill="white"></path><path d="M117.416 15.4546C117.491 15.7502 117.553 16.1319 117.59 16.6122C117.628 17.0924 117.652 17.7328 117.652 18.5086C118.524 17.4865 119.533 16.6737 120.703 16.0703C121.874 15.4669 123.082 15.1714 124.34 15.1714C124.489 15.1714 124.638 15.1837 124.8 15.2083C124.962 15.233 125.087 15.2576 125.161 15.2699L124.589 18.0283C124.252 17.9421 123.829 17.8929 123.306 17.8929C121.812 17.8929 120.566 18.2254 119.57 18.8903C118.574 19.5553 117.939 20.2203 117.665 20.8606V33.4829H115V17.9421C114.975 16.5013 114.938 15.6763 114.9 15.4546H117.416Z" fill="white"></path><path d="M125.386 17.6589C125.958 17.0678 126.892 16.5013 128.187 15.9718C129.482 15.4423 130.902 15.1714 132.446 15.1714C134.277 15.1714 135.746 15.6393 136.83 16.5506C137.938 17.4742 138.486 18.7549 138.486 20.405V28.434C138.486 29.8009 138.598 30.6875 138.822 31.0939C139.046 31.5003 139.445 31.6973 140.017 31.6973C140.403 31.6973 140.789 31.6604 141.188 31.5865L141.611 32.8056C141.313 33.1012 140.877 33.3228 140.316 33.5075C139.756 33.6799 139.208 33.7785 138.673 33.7785C138.05 33.7785 137.49 33.5445 136.991 33.0888C136.493 32.6332 136.182 31.8328 136.07 30.6999H135.97C135.036 31.722 134.015 32.4978 132.907 33.015C131.799 33.5322 130.616 33.7908 129.358 33.7908C127.851 33.7908 126.656 33.3967 125.772 32.6086C124.887 31.8205 124.452 30.6875 124.452 29.2098C124.452 27.6336 124.962 26.3406 125.971 25.3431C126.979 24.3456 128.349 23.6191 130.055 23.1511C131.761 22.6955 133.691 22.4615 135.833 22.4615V21.0577C135.833 19.5799 135.51 18.5702 134.874 18.0406C134.239 17.5111 133.405 17.2402 132.384 17.2402C131.089 17.2402 129.943 17.4988 128.959 18.0283C127.963 18.5578 127.253 19.0258 126.805 19.4445L125.386 17.6589ZM135.808 23.9392C133.281 23.9762 131.238 24.3949 129.694 25.2076C128.15 26.0204 127.378 27.1902 127.378 28.7172C127.378 29.6654 127.639 30.3551 128.162 30.7984C128.685 31.2417 129.395 31.4633 130.292 31.4633C131.413 31.4633 132.508 31.2171 133.567 30.7122C134.625 30.2073 135.373 29.7516 135.808 29.333V23.9392Z" fill="white"></path><path d="M144.226 15.4546V14.0507C144.226 11.748 144.774 10.0116 145.883 8.84176C146.991 7.67189 148.498 7.09311 150.415 7.09311C151.113 7.09311 151.798 7.17931 152.458 7.3394C153.118 7.5118 153.616 7.69652 153.927 7.90586L152.781 10.1717C152.607 10.0486 152.271 9.86385 151.748 9.62988C151.225 9.3959 150.727 9.27276 150.241 9.27276C148.971 9.27276 148.074 9.60525 147.564 10.2702C147.265 10.6273 147.09 11.2184 147.016 12.0558C146.941 12.8932 146.904 14.0138 146.904 15.4423H151.187L150.938 17.6589H146.904V33.4583H144.239V17.6835H141.773V15.4669H144.226V15.4546Z" fill="white"></path><path d="M150.727 15.4555H153.354V10.8992H156.019V15.4555H160.452L160.166 17.746H156.019V28.164C156.019 29.1984 156.193 30.0234 156.53 30.6515C156.878 31.2795 157.414 31.5874 158.136 31.5874C158.534 31.5874 159.02 31.5258 159.618 31.415C160.216 31.3041 160.614 31.2179 160.801 31.1564L161 33.4469C160.776 33.4961 160.303 33.5577 159.568 33.6562C158.846 33.7547 158.273 33.804 157.85 33.804C156.417 33.804 155.309 33.4592 154.512 32.7572C153.715 32.0553 153.317 30.7623 153.317 28.8659V17.7706H150.689V15.4555H150.727Z" fill="white"></path><path d="M43.3351 0H0V42.8541H43.3351V0Z" fill="#D0212A"></path><path d="M10.921 6.19415H4.74445V12.3021H10.921V6.19415Z" fill="white"></path><path d="M13.0255 8.62067V14.7286H6.849V34.678H13.0255V14.7286H18.953V34.678H25.1295V14.7286H31.0694V34.678H37.2459V14.7286V8.62067H13.0255Z" fill="white"></path></svg>